<svg width="12" height="12" viewBox="0 0 12 12" fill="none" xmlns="http://www.w3.org/2000/svg">
<path d="M5.29 0.295797C5.19627 0.38876 5.12188 0.49936 5.07111 0.621219C5.02034 0.743079 4.9942 0.873785 4.9942 1.0058C4.9942 1.13781 5.02034 1.26851 5.07111 1.39037C5.12188 1.51223 5.19627 1.62283 5.29 1.7158L8.59 5.0058L1 5.0058C0.734783 5.0058 0.480429 5.11115 0.292893 5.29869C0.105357 5.48623 -2.7404e-07 5.74058 -2.62447e-07 6.0058C-2.50854e-07 6.27101 0.105357 6.52537 0.292893 6.7129C0.48043 6.90044 0.734783 7.0058 1 7.0058L8.59 7.0058L5.29 10.2958C5.1017 10.4841 4.99591 10.7395 4.99591 11.0058C4.99591 11.2721 5.1017 11.5275 5.29 11.7158C5.4783 11.9041 5.7337 12.0099 6 12.0099C6.2663 12.0099 6.5217 11.9041 6.71 11.7158L11.71 6.7158C11.801 6.62069 11.8724 6.50855 11.92 6.3858C11.9729 6.2661 12.0002 6.13667 12.0002 6.0058C12.0002 5.87492 11.9729 5.7455 11.92 5.6258C11.8724 5.50304 11.801 5.3909 11.71 5.2958L6.71 0.295797C6.61704 0.202069 6.50644 0.127673 6.38458 0.076904C6.26272 0.0261352 6.13201 -2.17539e-06 6 -2.16962e-06C5.86799 -2.16385e-06 5.73728 0.0261352 5.61542 0.0769041C5.49356 0.127673 5.38296 0.202069 5.29 0.295797Z" fill="#262833"/>
</svg>
